<?xml version="1.0" standalone="no"?><!DOCTYPE svg PUBLIC "-//W3C//DTD SVG 1.1//EN" "http://www.w3.org/Graphics/SVG/1.1/DTD/svg11.dtd"><svg t="1611238406897" class="icon" viewBox="0 0 1024 1024" version="1.1" xmlns="http://www.w3.org/2000/svg" p-id="1794" xmlns:xlink="http://www.w3.org/1999/xlink" width="200" height="200"><defs><style type="text/css"></style></defs><path d="M483.5 759.01h76c15.74 0 28.5 12.76 28.5 28.5s-12.76 28.5-28.5 28.5h-76c-15.74 0-28.5-12.76-28.5-28.5s12.76-28.5 28.5-28.5z" p-id="1795"></path><path d="M759.01 711.51H264.99c-15.74 0-28.5-12.76-28.5-28.5s12.76-28.5 28.5-28.5h494.02c15.74 0 28.5 12.76 28.5 28.5s-12.75 28.5-28.5 28.5z" p-id="1796"></path><path d="M740.01 920.52H283.99c-36.67 0-66.5-29.84-66.5-66.5V169.98c0-36.67 29.84-66.5 66.5-66.5h456.02c36.67 0 66.5 29.84 66.5 66.5v684.03c0 36.67-29.83 66.51-66.5 66.51zM283.99 160.48c-5.24 0-9.5 4.26-9.5 9.5v684.03c0 5.24 4.26 9.5 9.5 9.5h456.02c5.24 0 9.5-4.26 9.5-9.5V169.98c0-5.24-4.26-9.5-9.5-9.5H283.99z" p-id="1797"></path></svg>